<svg width="30" height="36" viewBox="0 0 30 36" fill="none" xmlns="http://www.w3.org/2000/svg">
<g clip-path="url(#clip0)">
<path d="M4.69777 1.94891L1.55217 15.6891C0.988979 18.1252 0.686781 20.5893 0.645572 23.0812L0.425792 33.7308C0.288429 34.7331 1.09887 35.6102 2.15656 35.6102H27.8296C28.8736 35.6102 29.684 34.7331 29.5604 33.7308L29.6154 23.3178C29.6291 20.6728 29.3132 18.0417 28.6676 15.4802L25.3022 1.94891H4.69777Z" fill="white"/>
<path d="M27.8297 35.9999H2.14287C1.52473 35.9999 0.934074 35.7493 0.535722 35.3039C0.137371 34.8584 -0.0549369 34.2876 0.0137444 33.7029L0.233525 23.0811C0.28847 20.5753 0.590667 18.0556 1.15385 15.6194L4.36814 1.55908H25.6181L29.0522 15.3827C29.6978 17.986 30.0137 20.6449 30 23.3178L29.9451 33.7029C30.0137 34.2876 29.8214 34.8584 29.4231 35.3039C29.0247 35.7493 28.4341 35.9999 27.8297 35.9999ZM5.02748 2.33866L1.95056 15.7725C1.40111 18.167 1.09891 20.631 1.04396 23.0811L0.824184 33.7586V33.7865C0.769239 34.1484 0.892865 34.5243 1.14012 34.7888C1.38737 35.0672 1.75825 35.2203 2.14287 35.2203H27.8159C28.2006 35.2203 28.5577 35.0672 28.8187 34.7888C29.0659 34.5104 29.1896 34.1484 29.1346 33.7865V33.7586V33.7308L29.1896 23.3178C29.2033 20.7145 28.8874 18.0974 28.2555 15.5637L24.9725 2.33866H5.02748Z" fill="#0A0000"/>
<path d="M26.511 4.38511H3.50275L4.68407 1.60089H25.522L26.511 4.38511Z" fill="white"/>
<path d="M27.0879 4.77486H2.89838L4.40937 1.21106H25.8105L27.0879 4.77486ZM4.10717 3.99528H25.9478L25.2335 1.99064H4.95882L4.10717 3.99528Z" fill="#0A0000"/>
<path d="M26.8956 34.0928H15.5632C15.3434 34.0928 15.1511 33.9118 15.1511 33.703C15.1511 33.4941 15.3297 33.3132 15.5632 33.3132H26.8956C27.1154 33.3132 27.3077 33.4941 27.3077 33.703C27.3077 33.9118 27.1291 34.0928 26.8956 34.0928Z" fill="#0A0000"/>
<path d="M5.70056 33.8282H1.62089C1.40111 33.8282 1.2088 33.6473 1.2088 33.4384C1.2088 33.2296 1.38737 33.0486 1.62089 33.0486H5.70056C5.92034 33.0486 6.11265 33.2296 6.11265 33.4384C6.09891 33.6612 5.92034 33.8282 5.70056 33.8282Z" fill="#0A0000"/>
<path d="M25.7555 1.69836H4.01099V0.389771H26.4973L25.7555 1.69836Z" fill="white"/>
<path d="M3.59888 -6.10352e-05H27.184L25.989 2.08811H3.59888V-6.10352e-05ZM25.8104 0.779521H4.40932V1.30852H25.5082L25.8104 0.779521Z" fill="#0A0000"/>
<path d="M15 26.2273C19.0208 26.2273 22.2802 22.924 22.2802 18.8491C22.2802 14.7743 19.0208 11.4709 15 11.4709C10.9793 11.4709 7.71979 14.7743 7.71979 18.8491C7.71979 22.924 10.9793 26.2273 15 26.2273Z" fill="white"/>
<path d="M15 26.8259C10.6594 26.8259 7.12915 23.2482 7.12915 18.8491C7.12915 14.45 10.6594 10.8723 15 10.8723C19.3407 10.8723 22.8709 14.45 22.8709 18.8491C22.8709 23.2482 19.3407 26.8259 15 26.8259ZM15 12.0835C11.3187 12.0835 8.32421 15.1183 8.32421 18.8491C8.32421 22.58 11.3187 25.6148 15 25.6148C18.6813 25.6148 21.6759 22.58 21.6759 18.8491C21.6759 15.1183 18.6813 12.0835 15 12.0835Z" fill="black"/>
</g>
<defs>
<clipPath id="clip0">
<rect width="30" height="36" fill="white"/>
</clipPath>
</defs>
</svg>
