<svg width="41" height="41" viewBox="0 0 41 41" fill="none" xmlns="http://www.w3.org/2000/svg">
<path d="M40.4876 19.9309C40.4719 19.7276 40.4719 19.5401 40.4563 19.3369C40.425 18.4615 40.3938 17.3517 40.175 16.195C40.1437 16.0074 40.1124 15.8042 40.0655 15.6167C39.9405 14.9133 39.7998 14.0223 39.4716 13.1157C39.1433 12.1935 38.7525 11.1931 38.2054 10.2083C37.6583 9.19228 36.9862 8.3482 36.4079 7.58228C35.767 6.75383 35.048 5.97227 34.2664 5.23761C33.563 4.58111 32.8283 4.1278 32.25 3.76829C32.0624 3.65887 31.8592 3.53382 31.6873 3.40877C30.765 2.78353 29.9366 2.37712 28.9987 1.93945L28.4047 1.65809L28.264 1.64246C27.9514 1.45488 27.5919 1.25168 27.1699 1.04848C26.7947 0.876534 26.4196 0.735853 26.0601 0.626436C25.1222 0.345076 24.2469 0.26692 23.5435 0.188765C23.3403 0.173134 23.1527 0.157503 22.9495 0.12624C21.7928 -0.0144396 20.7142 -0.0144396 19.8233 0.0168226C18.8072 0.0480848 17.8068 0.0949781 16.697 0.313814C15.681 0.517018 14.8057 0.82964 14.0397 1.111L13.6959 1.23605C13.6177 1.26731 13.3676 1.3142 13.18 1.3611C12.5235 1.50178 11.6169 1.68935 10.6791 2.20518C9.80371 2.67411 9.17847 3.25246 8.66264 3.72139C8.4907 3.87771 8.31876 4.04965 8.17808 4.14343C8.08429 4.22159 7.88109 4.34664 7.69351 4.45606C7.11516 4.79994 6.33361 5.2845 5.61458 6.0348C4.95807 6.7382 4.50477 7.47286 4.14525 8.06684C4.0202 8.30131 3.89515 8.50451 3.80137 8.66082C3.25428 9.47364 2.87913 10.2865 2.55088 11.0055C2.48835 11.1618 2.4102 11.3025 2.34767 11.4588C1.91 12.3654 1.65991 13.2251 1.4567 13.9754C1.40981 14.1161 1.36291 14.2568 1.33165 14.3974C1.26913 14.585 1.19097 14.8038 1.11282 15.0383C0.893981 15.6792 0.612621 16.4764 0.487572 17.4455C0.471941 17.5549 0.409416 17.805 0.362523 18.0239C0.190581 18.6647 -0.0282545 19.5557 0.0030077 20.603C0.0342699 21.8222 0.45631 22.7913 0.73767 23.4322C0.784563 23.5416 0.847087 23.6979 0.87835 23.7761C1.09719 24.8859 1.42544 25.8707 1.73806 26.6991C1.78495 26.8398 1.83185 26.9805 1.89437 27.1212C2.1601 27.8558 2.44146 28.6999 2.92602 29.5909C3.00418 29.7316 3.08234 29.8722 3.16049 30.0129C3.53564 30.7007 3.94205 31.4822 4.56729 32.2794L4.70797 32.467C5.23943 33.1548 5.83341 33.9363 6.6306 34.671C6.77128 34.8117 6.92759 34.9523 7.06827 35.093C7.58409 35.5932 8.20934 36.2185 9.02216 36.7812C10.0382 37.469 10.9135 37.9692 11.7732 38.3756C12.8049 38.8601 13.8053 38.9695 14.4618 39.0477C14.6181 39.0633 14.8057 39.079 14.8995 39.0946C15.0401 39.1415 15.1808 39.1727 15.3215 39.2196C16.0718 39.4541 16.9315 39.7042 17.9163 39.8293C19.1355 39.9856 20.1046 40.0325 21.0581 40.0012C21.9803 39.9699 23.0589 39.923 24.2 39.7042C24.3875 39.6729 24.5595 39.6417 24.7471 39.6104C25.513 39.4697 26.3727 39.3291 27.2949 39.0008L27.6388 38.8758C28.436 38.5944 29.327 38.2818 30.2336 37.7816C31.0777 37.3126 31.7498 36.7499 32.2812 36.3123C32.4532 36.1716 32.6251 36.0309 32.7971 35.8902C32.9378 35.7808 33.1253 35.6401 33.3285 35.5151C33.9069 35.1243 34.6103 34.6241 35.2824 33.9051C35.3762 33.7956 35.4856 33.6862 35.5794 33.5924C36.1421 32.9985 36.783 32.3263 37.3614 31.4822C38.0022 30.5287 38.5493 29.5909 38.9714 28.7155C39.4872 27.6214 39.5653 26.5741 39.6122 25.8863C39.6279 25.7613 39.6279 25.6049 39.6435 25.5112C39.6904 25.3392 39.7685 25.1516 39.8311 24.9328C40.0499 24.2919 40.3469 23.4791 40.4563 22.5256C40.5814 21.5252 40.5345 20.6499 40.4876 19.9309ZM20.7767 25.5581C20.7455 25.5581 20.7299 25.5581 20.6986 25.5581C20.6361 25.5737 20.5579 25.5893 20.511 25.6049C20.4329 25.5893 20.3391 25.5737 20.2297 25.5424C17.1034 25.2611 14.6494 22.6507 14.6494 19.4463C14.6494 16.07 17.3848 13.3345 20.7611 13.3345C24.1374 13.3345 26.8729 16.07 26.8729 19.4463C26.8885 22.8226 24.1531 25.5581 20.7767 25.5581Z" fill="black"/>
<path d="M15.9624 25.3705C14.8838 24.6358 14.4462 23.7292 13.9303 22.635C13.3833 21.5096 12.8987 20.2122 12.9768 18.9617C13.0706 17.7425 13.4614 16.3669 14.1961 15.2884C14.9307 14.2099 16.0874 13.3658 17.1816 12.8343C18.3071 12.2872 19.7139 11.8808 20.9643 11.9746C22.1679 12.0684 23.9499 11.9746 25.0284 12.7093C26.107 13.4439 26.529 15.2102 27.0605 16.3044C27.6076 17.4299 27.3418 18.7741 27.248 20.0246C27.1699 21.2282 27.0917 22.4943 26.3727 23.5729C25.638 24.6514 24.7158 25.6518 23.6216 26.1833C22.4962 26.7304 21.0894 27.168 19.8545 27.0742C18.6509 26.9805 17.4161 26.2458 16.3375 25.5111L15.9624 25.3705ZM29.2019 35.3431C30.0616 34.9211 30.6556 34.7804 31.4216 34.2333C32.2031 33.6862 32.7971 32.9515 33.4536 32.295C34.1257 31.6385 34.6885 30.9195 35.2355 30.1536C35.7983 29.3877 36.3297 28.653 36.7518 27.8245C37.1894 26.9805 37.4395 26.1051 37.7365 25.2141C38.0335 24.3232 38.6275 23.5104 38.7838 22.5881C38.9401 21.6659 38.7525 20.6968 38.7525 19.7589C38.7525 18.821 39.0339 17.8675 38.8932 16.9297C38.7525 16.0074 38.3149 15.1321 38.0179 14.2255C37.7365 13.3345 37.2676 12.5373 36.8455 11.6776C36.4235 10.8335 35.8452 10.1145 35.3137 9.34858C34.751 8.56702 34.3289 7.73857 33.6881 7.06644C33.0159 6.3943 32.5314 5.48769 31.7811 4.92498C31.0151 4.36226 29.9053 4.36226 29.0769 3.92458C28.2328 3.48691 27.3887 3.18992 26.4978 2.89293C25.6068 2.59594 24.7627 2.26769 23.8248 2.11138C22.9026 1.95507 21.996 1.75186 21.0581 1.75186C20.1203 1.75186 19.1824 1.7206 18.2445 1.86128C17.3536 2.04885 16.3844 2.09575 15.4778 2.39274C14.5869 2.6741 13.6802 3.00235 12.8205 3.44002C11.9765 3.86206 11.4137 4.75303 10.6634 5.30012C9.88189 5.84721 9.11597 6.3474 8.45946 7.00391C7.78732 7.66042 7.16208 8.33256 6.59936 9.09848C6.03664 9.8644 5.50518 10.6147 5.08314 11.4431C4.64547 12.2872 4.14527 13.1 3.84828 13.991C3.55129 14.882 3.22304 15.7886 3.06673 16.7265C2.91042 17.6487 3.03547 18.6178 3.03547 19.5713C3.03547 20.5092 2.87915 21.4783 3.01983 22.4162C3.16051 23.3384 3.26993 24.3232 3.55129 25.2298C3.83265 26.1051 4.19217 27.043 4.61421 27.9027C5.03625 28.7624 6.00538 29.2782 6.55246 30.0442C7.09955 30.8101 7.53722 31.6698 8.19373 32.3263C8.86587 32.9984 9.66305 33.483 10.429 34.0457C11.1949 34.6084 11.9452 35.1555 12.7736 35.5776C13.6177 36.0152 14.4149 36.5154 15.3059 36.8124C16.1969 37.1094 17.1191 37.3908 18.0413 37.5471C18.9636 37.7034 19.9327 37.7034 20.8706 37.719C21.8084 37.719 22.7463 37.6565 23.6842 37.5158C24.6064 37.3751 25.4661 36.9531 26.3727 36.6717C27.248 36.3904 27.9983 35.9996 28.8581 35.5932C29.03 35.4682 29.2019 35.3431 29.2019 35.3431Z" fill="#54C8E8"/>
<path d="M33.7037 7.0665C33.1097 6.17553 32.2343 4.94067 31.187 4.53426C30.4524 4.2529 30.6556 2.87736 29.2175 3.20562C28.0921 3.47135 27.1855 2.33028 26.0444 2.08018C21.105 1.00163 13.055 1.98639 10.4915 4.65931C7.24019 8.06689 8.33437 7.33223 6.95883 8.64524C9.61612 7.9731 11.6638 5.70659 14.071 4.42484C15.7591 3.53387 18.01 3.31504 19.9014 3.5964C21.2457 3.7996 22.4024 4.36232 23.6841 4.73747C24.622 5.01883 25.4504 4.86251 26.4039 4.79999C27.9983 4.69057 29.4676 4.79999 30.8901 5.58155C31.8436 6.113 32.8127 6.53504 33.7974 7.05087" fill="#0082CA"/>
<path d="M30.3117 6.87892C30.2961 6.87892 30.2649 6.87892 30.2492 6.87892L29.4833 6.8164C29.0925 6.78513 28.8112 6.44125 28.8424 6.05047C28.8737 5.65969 29.2176 5.37834 29.6084 5.4096L30.3743 5.47212C30.7651 5.50338 31.0464 5.84727 31.0151 6.23805C30.9839 6.61319 30.6713 6.87892 30.3117 6.87892Z" fill="#FEFEFE"/>
<path d="M13.1644 12.7406C12.9456 12.7406 12.7267 12.6468 12.5861 12.4436C12.3516 12.131 12.4298 11.6933 12.7424 11.4588L13.5239 10.8961C13.8366 10.6616 14.2742 10.7398 14.5087 11.0524C14.7432 11.365 14.665 11.8027 14.3524 12.0372L13.5708 12.5999C13.4614 12.6937 13.3207 12.7406 13.1644 12.7406Z" fill="#FEFEFE"/>
<path d="M7.91235 12.678C7.72478 12.678 7.55283 12.6155 7.41215 12.4748L6.80254 11.8652C6.52118 11.5839 6.52118 11.1462 6.80254 10.8648C7.0839 10.5835 7.52157 10.5835 7.80293 10.8648L8.41255 11.4744C8.69391 11.7558 8.69391 12.1935 8.41255 12.4748C8.27187 12.5999 8.08429 12.678 7.91235 12.678Z" fill="#FEFEFE"/>
<path d="M16.6345 5.36269C16.5407 5.36269 16.4469 5.34706 16.3531 5.30017C15.9936 5.14385 15.8373 4.73745 15.978 4.37793L16.3219 3.58074C16.4782 3.22123 16.8846 3.06492 17.2441 3.2056C17.6036 3.36191 17.7599 3.76832 17.6193 4.12783L17.2754 4.92502C17.166 5.19075 16.9002 5.36269 16.6345 5.36269Z" fill="#FEFEFE"/>
<path d="M12.6798 8.22318C12.5392 8.22318 12.3985 8.17629 12.2734 8.09813C11.9608 7.8793 11.8827 7.44162 12.1015 7.11337L12.6017 6.40997C12.8205 6.09735 13.2582 6.01919 13.5864 6.23803C13.8991 6.45686 13.9772 6.89454 13.7584 7.22279L13.2426 7.92619C13.1175 8.12939 12.8987 8.22318 12.6798 8.22318Z" fill="#FEFEFE"/>
<path d="M28.2171 12.5998C27.842 12.5998 27.5294 12.3029 27.5137 11.9277L27.4668 11.1305C27.4512 10.7397 27.7482 10.4115 28.1233 10.3802C28.5141 10.3646 28.8424 10.6616 28.8736 11.0367L28.9205 11.8339C28.9362 12.2247 28.6392 12.553 28.264 12.5842C28.2328 12.5998 28.2171 12.5998 28.2171 12.5998Z" fill="#FEFEFE"/>
<path d="M30.2805 9.81757C30.1711 9.81757 30.0616 9.78631 29.9522 9.73942L29.2488 9.36427C28.9049 9.1767 28.7799 8.75466 28.9518 8.41077C29.1394 8.06689 29.5614 7.94184 29.9053 8.11378L30.6087 8.48893C30.9526 8.6765 31.0777 9.09854 30.9057 9.44243C30.7807 9.67689 30.5306 9.81757 30.2805 9.81757Z" fill="#FEFEFE"/>
<path d="M19.0886 7.81674C18.8541 7.81674 18.6197 7.70732 18.4946 7.48849C18.2914 7.16023 18.3852 6.72256 18.7135 6.51936L19.5263 6.00353C19.8545 5.80033 20.2922 5.89411 20.4954 6.22237C20.6986 6.55062 20.6048 6.98829 20.2766 7.1915L19.4637 7.70732C19.3543 7.78548 19.2137 7.81674 19.0886 7.81674Z" fill="#0082CA"/>
<path d="M10.1633 10.7398C9.92879 10.7398 9.69432 10.6148 9.55364 10.3959L9.17849 9.73943C8.97529 9.39554 9.08471 8.97351 9.42859 8.7703C9.75684 8.5671 10.1945 8.69215 10.3977 9.0204L10.7885 9.6769C10.9761 10.0208 10.851 10.4428 10.5228 10.646C10.4133 10.7086 10.2883 10.7398 10.1633 10.7398Z" fill="#0082CA"/>
<path d="M32.0936 12.8031C31.9686 12.8031 31.8435 12.7719 31.7341 12.7093C31.4059 12.5218 31.2965 12.0841 31.484 11.7402L31.9686 10.9118C32.1718 10.5835 32.5938 10.4585 32.9377 10.6617C33.266 10.8649 33.391 11.2869 33.1878 11.6308L32.7033 12.4592C32.5782 12.6781 32.3437 12.8031 32.0936 12.8031Z" fill="#0082CA"/>
<path d="M25.9194 8.37939C25.5599 8.37939 25.2472 8.09803 25.216 7.72289L25.1378 6.80065C25.1066 6.40987 25.4035 6.06599 25.7787 6.05036C26.1695 6.01909 26.5134 6.31609 26.529 6.69123L26.6071 7.61347C26.6384 8.00425 26.3414 8.34813 25.9663 8.36376C25.9506 8.37939 25.935 8.37939 25.9194 8.37939Z" fill="#0082CA"/>
<path d="M25.3098 11.8027C25.2942 11.8027 25.2942 11.8027 25.2785 11.8027L24.2781 11.7558C23.8874 11.7401 23.5904 11.4119 23.606 11.0211C23.6216 10.6303 23.9499 10.3333 24.3407 10.349L25.341 10.3959C25.7318 10.4115 26.0288 10.7398 26.0132 11.1305C25.9976 11.5057 25.6849 11.8027 25.3098 11.8027Z" fill="#0082CA"/>
<path d="M31.5466 25.2454C31.1714 25.2454 30.8588 24.9484 30.8432 24.5732L30.7963 23.776C30.7806 23.3853 31.0776 23.057 31.4528 23.0257C31.8436 23.0101 32.1718 23.3071 32.2031 23.6822L32.25 24.4794C32.2656 24.8702 31.9686 25.1985 31.5935 25.2297C31.5778 25.2454 31.5622 25.2454 31.5466 25.2454Z" fill="#FEFEFE"/>
<path d="M33.6099 21.3533C33.5005 21.3533 33.3911 21.3221 33.2817 21.2752L32.5783 20.9C32.2344 20.7125 32.1093 20.2904 32.2813 19.9465C32.4688 19.6027 32.8909 19.4776 33.2348 19.6495L33.9382 20.0247C34.282 20.2123 34.4071 20.6343 34.2351 20.9782C34.1101 21.2127 33.8756 21.3533 33.6099 21.3533Z" fill="#FEFEFE"/>
<path d="M35.4388 25.4486C35.3137 25.4486 35.1887 25.4174 35.0792 25.3548C34.751 25.1516 34.6259 24.7296 34.8291 24.3857L35.3137 23.5573C35.5169 23.229 35.9389 23.104 36.2828 23.3072C36.6111 23.5104 36.7361 23.9324 36.5329 24.2763L36.0484 25.1047C35.9077 25.3392 35.6732 25.4486 35.4388 25.4486Z" fill="#0082CA"/>
<path d="M30.3742 18.8054C30.0147 18.8054 29.7021 18.5241 29.6708 18.1489L29.5927 17.2267C29.5614 16.8359 29.8584 16.492 30.2335 16.4764C30.6243 16.4451 30.9682 16.7421 30.9838 17.1173L31.062 18.0395C31.0932 18.4303 30.7962 18.7742 30.4211 18.7898C30.4055 18.8054 30.3898 18.8054 30.3742 18.8054Z" fill="#0082CA"/>
<path d="M29.7646 22.2286C29.749 22.2286 29.749 22.2286 29.7334 22.2286L28.733 22.1817C28.3422 22.1661 28.0452 21.8378 28.0608 21.447C28.0765 21.0562 28.4047 20.7593 28.7955 20.7749L29.7959 20.8218C30.1867 20.8374 30.4837 21.1657 30.468 21.5564C30.4524 21.9316 30.1398 22.2286 29.7646 22.2286Z" fill="#FEFEFE"/>
<path d="M34.0476 10.4584C33.86 10.4584 33.6881 10.3959 33.5474 10.2552L33.0472 9.75499C32.7658 9.47363 32.7658 9.03596 33.0472 8.7546C33.3286 8.47324 33.7662 8.47324 34.0476 8.7546L34.5478 9.25479C34.8291 9.53615 34.8291 9.97383 34.5478 10.2552C34.4071 10.3959 34.2195 10.4584 34.0476 10.4584Z" fill="#FEFEFE"/>
<path d="M17.4943 10.8336C17.3067 10.8336 17.1035 10.7554 16.9784 10.5991L16.3063 9.8488C16.0406 9.56744 16.0718 9.11413 16.3532 8.84841C16.6345 8.58268 17.0878 8.61394 17.3536 8.8953L18.0257 9.64559C18.2914 9.92695 18.2602 10.3803 17.9788 10.646C17.8381 10.771 17.6662 10.8336 17.4943 10.8336Z" fill="#FEFEFE"/>
<path d="M12.4141 29.3251C12.1328 29.3251 11.867 29.1532 11.7576 28.8718C11.6169 28.5123 11.8045 28.1059 12.164 27.9652L13.0706 27.6214C13.4301 27.4807 13.8365 27.6682 13.9772 28.0278C14.1179 28.3873 13.9303 28.7937 13.5708 28.9344L12.6642 29.2782C12.5861 29.3095 12.4923 29.3251 12.4141 29.3251Z" fill="#FEFEFE"/>
<path d="M25.5442 30.685C25.2629 30.685 24.9972 30.5131 24.8877 30.2317C24.7471 29.8722 24.9346 29.4658 25.2941 29.3251L26.2008 28.9812C26.5603 28.8405 26.9667 29.0281 27.1074 29.3876C27.248 29.7471 27.0605 30.1535 26.7009 30.2942L25.7943 30.6381C25.7162 30.6694 25.638 30.685 25.5442 30.685Z" fill="#FEFEFE"/>
<path d="M27.7795 32.3889C27.4981 32.3889 27.2324 32.2169 27.123 31.9356C26.9823 31.576 27.1699 31.1696 27.5294 31.029L28.436 30.6851C28.7955 30.5444 29.2019 30.732 29.3426 31.0915C29.4833 31.451 29.2957 31.8574 28.9362 31.9981L28.0296 32.342C27.9514 32.3732 27.8733 32.3889 27.7795 32.3889Z" fill="#FEFEFE"/>
<path d="M24.9346 35.687C24.7158 35.687 24.5126 35.5932 24.3719 35.4056C24.1374 35.093 24.2 34.6553 24.497 34.4209L25.2629 33.8269C25.5755 33.5924 26.0132 33.655 26.2476 33.9519C26.4821 34.2646 26.4196 34.7022 26.1226 34.9367L25.3567 35.5307C25.2316 35.6401 25.0909 35.687 24.9346 35.687Z" fill="#FEFEFE"/>
<path d="M15.8061 36.3278C15.5247 36.3278 15.259 36.1559 15.1496 35.8745C15.0089 35.515 15.1965 35.1086 15.556 34.9679L16.4626 34.624C16.8221 34.4834 17.2285 34.6709 17.3692 35.0304C17.5099 35.39 17.3223 35.7964 16.9628 35.937L16.0562 36.2809C15.978 36.3122 15.8999 36.3278 15.8061 36.3278Z" fill="#FEFEFE"/>
<path d="M13.6177 34.0926H13.6021C13.2113 34.077 12.8987 33.7644 12.9143 33.3736L12.93 32.4044C12.9456 32.0137 13.2582 31.7167 13.6334 31.7167H13.649C14.0398 31.7323 14.3524 32.0449 14.3368 32.4357L14.3211 33.4048C14.3055 33.7956 13.9929 34.0926 13.6177 34.0926Z" fill="#FEFEFE"/>
<path d="M18.8229 31.1228C18.5728 31.1228 18.3383 30.9977 18.2133 30.7789L17.7756 30.0286C17.5724 29.6847 17.6974 29.2627 18.0257 29.0595C18.3696 28.8563 18.7916 28.9813 18.9948 29.3096L19.4325 30.0599C19.6357 30.4038 19.5106 30.8258 19.1824 31.029C19.0573 31.0915 18.9479 31.1228 18.8229 31.1228Z" fill="#FEFEFE"/>
<path d="M10.2102 32.2013C9.91316 32.2013 9.6318 32.0137 9.53801 31.7011C9.42859 31.326 9.6318 30.9352 9.99131 30.8101L10.9136 30.5131C11.2887 30.4037 11.6795 30.6069 11.8045 30.9664C11.9139 31.3416 11.7107 31.7324 11.3512 31.8574L10.429 32.1544C10.3508 32.2013 10.2727 32.2013 10.2102 32.2013Z" fill="#0082CA"/>
<path d="M27.8107 34.9055C27.4668 34.9055 27.1698 34.6554 27.1073 34.3115C27.0448 33.9207 27.3105 33.5612 27.7013 33.5143L28.6548 33.3736C29.0456 33.3111 29.4051 33.5768 29.452 33.9676C29.5145 34.3584 29.2488 34.7179 28.858 34.7648L27.9045 34.9055C27.8889 34.9055 27.8576 34.9055 27.8107 34.9055Z" fill="#0082CA"/>
<path d="M17.885 33.6863C17.76 33.6863 17.6193 33.655 17.5099 33.5768L16.697 33.061C16.3688 32.8578 16.275 32.4201 16.4782 32.0919C16.6814 31.7636 17.1191 31.6698 17.4473 31.873L18.2601 32.3889C18.5884 32.5921 18.6822 33.0297 18.479 33.358C18.3383 33.5612 18.1195 33.6863 17.885 33.6863Z" fill="#0082CA"/>
<path d="M15.8061 30.263C15.4935 30.263 15.2121 30.0598 15.1339 29.7472L14.9307 29.0126C14.8213 28.6374 15.0402 28.2466 15.4153 28.1528C15.7904 28.0434 16.1812 28.2623 16.2906 28.6374L16.4938 29.3721C16.6033 29.7472 16.3844 30.138 16.0093 30.2474C15.9311 30.2474 15.8686 30.263 15.8061 30.263Z" fill="#0082CA"/>
<path d="M21.9178 35.8433C21.5739 35.8433 21.2613 35.5933 21.2144 35.2337C21.1675 34.843 21.4332 34.4991 21.824 34.4365L22.5743 34.3428C22.9651 34.2959 23.309 34.5616 23.3715 34.9524C23.4184 35.3432 23.1527 35.687 22.7619 35.7496L22.0116 35.8433C21.9803 35.8433 21.9491 35.8433 21.9178 35.8433Z" fill="#0082CA"/>
<path d="M23.1214 32.5765C23.1058 32.5765 23.1058 32.5765 23.0902 32.5765L22.121 32.5296C21.7303 32.514 21.4333 32.1857 21.4489 31.7949C21.4645 31.4041 21.7928 31.1072 22.1836 31.1228L23.1527 31.1697C23.5435 31.1853 23.8405 31.5136 23.8248 31.9043C23.8092 32.2795 23.4966 32.5765 23.1214 32.5765Z" fill="#0082CA"/>
<path d="M21.9178 29.1689C21.5739 29.1689 21.2613 28.9188 21.2144 28.5593C21.1675 28.1685 21.4332 27.8246 21.824 27.7621L22.5743 27.6683C22.9651 27.6214 23.309 27.8872 23.3715 28.2779C23.4184 28.6687 23.1527 29.0126 22.7619 29.0751L22.0116 29.1689C21.9803 29.1689 21.9491 29.1689 21.9178 29.1689Z" fill="#0082CA"/>
<path d="M37.7521 20.603C37.5646 20.8062 37.2519 20.8844 36.9706 20.775C36.6111 20.6343 36.4391 20.2122 36.5798 19.8527L36.9393 18.9618C37.08 18.6022 37.502 18.4303 37.8616 18.571C38.2211 18.7117 38.393 19.1337 38.2523 19.4932L37.8928 20.3842C37.8616 20.478 37.8147 20.5405 37.7521 20.603Z" fill="#FEFEFE"/>
<path d="M30.4212 27.2463C30.4212 27.2619 30.4368 27.2619 30.4368 27.2775L30.7963 28.1841C30.937 28.5436 30.765 28.95 30.4055 29.1064C30.046 29.247 29.6396 29.0751 29.4989 28.7156L29.1394 27.809C28.9987 27.4495 29.1707 27.0431 29.5302 26.8867C29.8741 26.7461 30.2648 26.9024 30.4212 27.2463Z" fill="#0082CA"/>
<path d="M27.5137 26.6835C27.2793 26.9336 26.8885 26.9805 26.5915 26.7773C26.2789 26.5585 26.2007 26.1052 26.4195 25.7925L26.8572 25.1673C27.0917 24.8547 27.5294 24.7765 27.842 24.9954C28.1546 25.2142 28.2328 25.6675 28.0139 25.9801L27.5762 26.6054C27.545 26.6366 27.5294 26.6522 27.5137 26.6835Z" fill="#0082CA"/>
<path d="M32.2187 16.2263C31.9374 16.2263 31.6717 16.0543 31.5622 15.773C31.4216 15.4134 31.6091 15.007 31.9686 14.8664L32.8753 14.5225C33.2348 14.3818 33.6412 14.5694 33.7819 14.9289C33.9225 15.2884 33.735 15.6948 33.3754 15.8355L32.4688 16.1794C32.3907 16.2106 32.3125 16.2263 32.2187 16.2263Z" fill="#FEFEFE"/>
<path d="M34.4539 19.0399C34.1726 19.0399 33.9069 18.8679 33.7974 18.5866C33.6568 18.227 33.8443 17.8206 34.2038 17.68L35.1104 17.3361C35.47 17.1954 35.8764 17.383 36.0171 17.7425C36.1577 18.102 35.9702 18.5084 35.6106 18.6491L34.704 18.993C34.6259 19.0242 34.5477 19.0399 34.4539 19.0399Z" fill="#0082CA"/>
<path d="M29.7021 14.7882L29.6865 14.8038L28.9831 15.4916C28.7017 15.7573 28.264 15.7573 27.9827 15.476C27.7169 15.1946 27.7169 14.7569 27.9983 14.4756L28.6861 13.7878C28.9674 13.5221 29.4051 13.5221 29.6865 13.7878C29.9522 14.0848 29.9522 14.5068 29.7021 14.7882Z" fill="#0082CA"/>
<path d="M36.9393 13.5065C37.1426 13.7878 37.1269 14.1786 36.8612 14.4287C36.5798 14.6944 36.1422 14.6944 35.8608 14.4131L35.3293 13.866C35.0636 13.5846 35.0636 13.147 35.345 12.8656C35.6263 12.5999 36.064 12.5999 36.3454 12.8812L36.8768 13.4283C36.9081 13.4596 36.9237 13.4908 36.9393 13.5065Z" fill="#0082CA"/>
<path d="M8.4907 29.9816C8.24061 29.9816 7.99051 29.8409 7.86546 29.6064L7.39653 28.7155C7.22458 28.3716 7.34963 27.9495 7.69352 27.762C8.0374 27.59 8.45944 27.7151 8.64702 28.059L9.11595 28.9499C9.28789 29.2938 9.16284 29.7159 8.81896 29.9034C8.70954 29.9503 8.60012 29.9816 8.4907 29.9816Z" fill="#FEFEFE"/>
<path d="M19.5419 36.8281C19.5263 36.8281 19.5106 36.8281 19.4794 36.8281C19.0886 36.7969 18.8072 36.453 18.8385 36.0778L18.9166 35.0775C18.9479 34.6867 19.2918 34.4053 19.6669 34.4366C20.0577 34.4678 20.3391 34.8117 20.3078 35.1869L20.2297 36.1873C20.214 36.5468 19.9014 36.8281 19.5419 36.8281Z" fill="#FEFEFE"/>
<path d="M20.7455 10.7397C20.5423 10.7397 20.3391 10.6459 20.1984 10.4896C19.9483 10.1926 19.9952 9.73934 20.2922 9.50488L20.9487 8.95779C21.2457 8.70769 21.699 8.75458 21.9334 9.05157C22.1835 9.34856 22.1366 9.80187 21.8397 10.0363L21.1831 10.5834C21.0581 10.6928 20.9018 10.7397 20.7455 10.7397Z" fill="#FEFEFE"/>
<path d="M34.2977 28.309C34.0789 28.309 33.86 28.2153 33.7193 28.0121C33.4849 27.6994 33.563 27.2618 33.8756 27.0273L34.6572 26.4646C34.9698 26.2301 35.4075 26.3083 35.642 26.6209C35.8764 26.9335 35.7983 27.3712 35.4856 27.6056L34.7041 28.1684C34.579 28.2622 34.4384 28.309 34.2977 28.309Z" fill="#FEFEFE"/>
<path d="M5.27069 17.4924C5.08312 17.4924 4.87991 17.4142 4.75486 17.2579L4.06709 16.5232C3.80137 16.2419 3.83263 15.7886 4.11399 15.5229C4.41098 15.2728 4.84865 15.2884 5.11438 15.5697L5.78652 16.32C6.05224 16.6014 6.02098 17.0547 5.73962 17.3204C5.59894 17.4455 5.427 17.4924 5.27069 17.4924Z" fill="#0082CA"/>
<path d="M6.2867 20.7436C6.0835 20.7436 5.8803 20.6499 5.73962 20.4935C5.48952 20.1966 5.53641 19.7432 5.8334 19.5088L6.48991 18.9617C6.7869 18.7116 7.2402 18.7585 7.47467 19.0555C7.72477 19.3525 7.67787 19.8058 7.38088 20.0402L6.72438 20.5873C6.61496 20.6967 6.44302 20.7436 6.2867 20.7436Z" fill="#FEFEFE"/>
<path d="M22.9182 5.28451C22.5743 5.28451 22.2617 5.01878 22.2148 4.65926C22.1679 4.26849 22.4336 3.9246 22.8244 3.87771L23.606 3.78392C23.9967 3.73703 24.3406 4.00276 24.3875 4.39353C24.4344 4.78431 24.1687 5.1282 23.7779 5.17509L22.9964 5.26888C22.9807 5.28451 22.9495 5.28451 22.9182 5.28451Z" fill="#FEFEFE"/>
<path d="M14.665 21.1189C14.665 21.1189 16.6032 23.7605 17.6818 24.5421C19.1042 25.5738 20.9487 26.1208 20.9487 26.1208L20.214 26.6679L18.1976 26.5898C18.1976 26.5898 13.5395 25.5581 13.5395 19.9934C13.5395 14.4288 14.665 21.1189 14.665 21.1189Z" fill="black"/>
<path d="M31.1558 30.6226C31.1558 30.607 31.1714 30.5757 31.1714 30.5601L31.4528 29.841C31.5934 29.4815 32.0155 29.3096 32.375 29.4503C32.7345 29.5909 32.9065 30.013 32.7658 30.3725L32.4844 31.0915C32.3437 31.451 31.9217 31.623 31.5622 31.4823C31.2339 31.3416 31.0464 30.9665 31.1558 30.6226Z" fill="#0082CA"/>
<path d="M8.52197 14.7101C8.63139 14.3506 9.00653 14.1474 9.36605 14.2412L10.132 14.4288C10.5071 14.5225 10.7416 14.8977 10.6478 15.2885C10.554 15.6636 10.1789 15.8981 9.78809 15.8043L9.02216 15.6011C8.64702 15.5073 8.41255 15.1322 8.50634 14.7414C8.52197 14.7257 8.52197 14.7101 8.52197 14.7101Z" fill="#FEFEFE"/>
<path d="M10.5696 25.2923C10.6009 25.1829 10.6634 25.0891 10.7416 24.9953L11.3043 24.4326C11.5856 24.1512 12.0233 24.1512 12.3047 24.4326C12.586 24.7139 12.586 25.1516 12.3047 25.433L11.742 25.9957C11.4606 26.2771 11.0229 26.2771 10.7416 25.9957C10.554 25.8081 10.4915 25.5268 10.5696 25.2923Z" fill="#FEFEFE"/>
<path d="M4.17652 21.744C4.20778 21.6346 4.28594 21.5252 4.37973 21.4314C4.66109 21.1657 5.11439 21.1813 5.38012 21.4783L6.02099 22.1817C6.28672 22.463 6.27109 22.9163 5.9741 23.1821C5.69274 23.4478 5.23944 23.4322 4.97371 23.1352L4.33283 22.4318C4.14526 22.2286 4.09837 21.9785 4.17652 21.744Z" fill="#0082CA"/>
<path d="M7.66224 21.5408C7.77166 21.1969 8.13117 20.9781 8.49069 21.0562L9.38166 21.2595C9.75681 21.3376 10.0069 21.7284 9.91312 22.1035C9.83496 22.4787 9.44419 22.7288 9.06904 22.635L8.17807 22.4318C7.80292 22.3536 7.55282 21.9629 7.64661 21.5877C7.66224 21.5721 7.66224 21.5564 7.66224 21.5408Z" fill="#0082CA"/>
<path d="M10.132 17.7269C10.132 17.7113 10.132 17.7113 10.1476 17.6956L10.4758 16.7421C10.6009 16.3826 11.0073 16.1794 11.3668 16.3045C11.7263 16.4295 11.9295 16.8359 11.8045 17.1954L11.4762 18.1489C11.3356 18.5397 10.9448 18.7273 10.5696 18.6022C10.2101 18.4772 10.0225 18.0864 10.132 17.7269Z" fill="#0082CA"/>
<path d="M5.52079 25.3549C5.56768 25.1829 5.69273 25.0266 5.86468 24.9328L6.48992 24.6046C6.8338 24.417 7.25584 24.5577 7.44342 24.9016C7.63099 25.2454 7.49031 25.6675 7.14643 25.8551L6.52118 26.1833C6.1773 26.3709 5.75526 26.2302 5.56768 25.8863C5.4739 25.7144 5.45827 25.5268 5.52079 25.3549Z" fill="#FEFEFE"/>
</svg>
