<svg width="19" height="19" viewBox="0 0 19 19" fill="none" xmlns="http://www.w3.org/2000/svg">
<path d="M9.27902 18.9481C10.3433 18.9481 11.0173 18.1853 11.0173 17.0856V11.2675H16.5161C17.5981 11.2675 18.3608 10.6112 18.3608 9.54694C18.3608 8.48267 17.5981 7.80862 16.5161 7.80862H11.0173V1.97284C11.0173 0.873084 10.3433 0.110352 9.27902 0.110352C8.197 0.110352 7.52296 0.873084 7.52296 1.97284V7.80862H2.00645C0.924438 7.80862 0.179443 8.48267 0.179443 9.54694C0.179443 10.6112 0.924438 11.2675 2.00645 11.2675H7.52296V17.0856C7.52296 18.1853 8.197 18.9481 9.27902 18.9481Z" fill="white"/>
</svg>
